<svg width="11" height="31" viewBox="0 0 11 31" fill="none" xmlns="http://www.w3.org/2000/svg">
<path d="M0.75 2.48438L1.625 0.046875C3.0625 0.442708 4.1875 1.00521 5 1.73438C5.8125 2.45312 6.38542 3.29167 6.71875 4.25C7.0625 5.19792 7.23438 6.21875 7.23438 7.3125V10.5C7.23438 11.1667 7.32812 11.7448 7.51562 12.2344C7.70312 12.724 8 13.1042 8.40625 13.375C8.82292 13.6458 9.35938 13.7812 10.0156 13.7812V16.0938C8.40104 16.0938 7.09375 15.849 6.09375 15.3594C5.09375 14.8698 4.35938 14.2031 3.89062 13.3594C3.42188 12.5052 3.1875 11.5521 3.1875 10.5V7.3125C3.1875 6.55208 3.11458 5.84896 2.96875 5.20312C2.83333 4.55729 2.58854 4 2.23438 3.53125C1.88021 3.0625 1.38542 2.71354 0.75 2.48438ZM1.625 30.6562L0.75 28.2031C1.38542 27.974 1.88021 27.625 2.23438 27.1562C2.58854 26.6875 2.83333 26.1302 2.96875 25.4844C3.11458 24.8385 3.1875 24.1354 3.1875 23.375V20.1875C3.1875 19.1354 3.42188 18.1875 3.89062 17.3438C4.35938 16.5 5.09375 15.8333 6.09375 15.3438C7.09375 14.8438 8.40104 14.5938 10.0156 14.5938V16.9219C9.03646 16.9219 8.32812 17.2188 7.89062 17.8125C7.45312 18.4062 7.23438 19.1979 7.23438 20.1875V23.375C7.23438 24.4688 7.0625 25.4896 6.71875 26.4375C6.38542 27.3958 5.8125 28.2344 5 28.9531C4.1875 29.6823 3.0625 30.25 1.625 30.6562Z" fill="#BDBDBD"/>
</svg>
