<svg width="60" height="60" viewBox="0 0 60 60" fill="none" xmlns="http://www.w3.org/2000/svg">
<path opacity="0.6" d="M48 37.9998V21.9998C47.9993 21.2984 47.8141 20.6094 47.4631 20.0021C47.112 19.3948 46.6075 18.8905 46 18.5398L32 10.5398C31.3919 10.1887 30.7021 10.0039 30 10.0039C29.2979 10.0039 28.6081 10.1887 28 10.5398L14 18.5398C13.3925 18.8905 12.888 19.3948 12.5369 20.0021C12.1859 20.6094 12.0007 21.2984 12 21.9998V37.9998C12.0007 38.7013 12.1859 39.3902 12.5369 39.9975C12.888 40.6048 13.3925 41.1091 14 41.4598L28 49.4598C28.6081 49.8109 29.2979 49.9957 30 49.9957C30.7021 49.9957 31.3919 49.8109 32 49.4598L46 41.4598C46.6075 41.1091 47.112 40.6048 47.4631 39.9975C47.8141 39.3902 47.9993 38.7013 48 37.9998Z" fill="#C4C4C4" stroke="#828282" stroke-width="2" stroke-linecap="round" stroke-linejoin="round"/>
<path opacity="0.6" d="M12.54 19.9199L30 30.0199L47.46 19.9199" stroke="#828282" stroke-width="2" stroke-linecap="round" stroke-linejoin="round"/>
<path opacity="0.6" d="M30 50.16V30" stroke="#828282" stroke-width="2" stroke-linecap="round" stroke-linejoin="round"/>
</svg>
