<svg width="60" height="60" viewBox="0 0 60 60" fill="none" xmlns="http://www.w3.org/2000/svg">
<path opacity="0.6" d="M48 37.8871V21.9493C47.9993 21.2505 47.8141 20.5643 47.4631 19.9594C47.112 19.3544 46.6075 18.8521 46 18.5027L32 10.5338C31.3919 10.1841 30.7021 10 30 10C29.2979 10 28.6081 10.1841 28 10.5338L14 18.5027C13.3925 18.8521 12.888 19.3544 12.5369 19.9594C12.1859 20.5643 12.0007 21.2505 12 21.9493V37.8871C12.0007 38.5858 12.1859 39.272 12.5369 39.877C12.888 40.4819 13.3925 40.9843 14 41.3336L28 49.3025C28.6081 49.6522 29.2979 49.8363 30 49.8363C30.7021 49.8363 31.3919 49.6522 32 49.3025L46 41.3336C46.6075 40.9843 47.112 40.4819 47.4631 39.877C47.8141 39.272 47.9993 38.5858 48 37.8871Z" fill="#CDBFFF" stroke="#583BCB" stroke-width="2" stroke-linecap="round" stroke-linejoin="round"/>
<path opacity="0.6" d="M12.54 19.8774L30 29.9382L47.46 19.8774" stroke="#583BCB" stroke-width="2" stroke-linecap="round" stroke-linejoin="round"/>
<path opacity="0.6" d="M30 50.0001V29.9185" stroke="#583BCB" stroke-width="2" stroke-linecap="round" stroke-linejoin="round"/>
</svg>
