<svg width="11" height="31" viewBox="0 0 11 31" fill="none" xmlns="http://www.w3.org/2000/svg">
<path d="M9.35938 0.046875L10.2344 2.48438C9.28646 2.82812 8.64062 3.4375 8.29688 4.3125C7.95312 5.17708 7.78125 6.17708 7.78125 7.3125V10.5C7.78125 11.5521 7.54688 12.5052 7.07812 13.3594C6.61979 14.2135 5.89062 14.8958 4.89062 15.4062C3.89062 15.9062 2.58333 16.1562 0.96875 16.1562V13.7812C1.95833 13.7812 2.66667 13.4844 3.09375 12.8906C3.53125 12.2969 3.75 11.5 3.75 10.5V7.3125C3.75 6.21875 3.91667 5.19792 4.25 4.25C4.59375 3.29167 5.17188 2.45312 5.98438 1.73438C6.80729 1.00521 7.93229 0.442708 9.35938 0.046875ZM10.2344 28.2031L9.35938 30.6562C7.93229 30.25 6.80729 29.6823 5.98438 28.9531C5.17188 28.2344 4.59375 27.3958 4.25 26.4375C3.91667 25.4896 3.75 24.4688 3.75 23.375V20.1875C3.75 19.5208 3.65104 18.9427 3.45312 18.4531C3.26562 17.9635 2.96875 17.5885 2.5625 17.3281C2.15625 17.0573 1.625 16.9219 0.96875 16.9219V14.5312C2.58333 14.5312 3.89062 14.7865 4.89062 15.2969C5.89062 15.7969 6.61979 16.474 7.07812 17.3281C7.54688 18.1823 7.78125 19.1354 7.78125 20.1875V23.375C7.78125 24.1354 7.85417 24.8385 8 25.4844C8.15625 26.1302 8.40625 26.6875 8.75 27.1562C9.10417 27.625 9.59896 27.974 10.2344 28.2031Z" fill="#BDBDBD"/>
</svg>
