<svg width="20" height="20" viewBox="0 0 20 20" fill="none" xmlns="http://www.w3.org/2000/svg">
<path fill-rule="evenodd" clip-rule="evenodd" d="M17.9988 13.7498L12.2101 3.76053L12.2101 3.76053C11.5147 2.56301 9.9616 2.14537 8.74115 2.82772C8.34472 3.04936 8.01636 3.37156 7.79048 3.76053L2.00185 13.7498C1.30334 14.9542 1.73218 16.4863 2.95969 17.1717C3.34136 17.3848 3.77254 17.4978 4.21168 17.5H15.7889C17.2013 17.4931 18.3405 16.364 18.3334 14.9782C18.3312 14.5474 18.2159 14.1243 17.9988 13.7498L17.9988 13.7498Z" fill="#EB5757" stroke="#EB5757"/>
<path fill-rule="evenodd" clip-rule="evenodd" d="M9.30521 6.59031V6.59031C9.30521 6.21373 9.61633 5.90845 10.0001 5.90845H10.0001C10.3839 5.90845 10.695 6.21373 10.695 6.59031V11.3633C10.695 11.7399 10.3839 12.0452 10.0001 12.0452C9.61633 12.0452 9.30521 11.7399 9.30521 11.3633L9.30521 6.59031ZM10.0001 15.4545H10.0001C9.42445 15.4545 8.95776 14.9966 8.95776 14.4317C8.95776 13.8668 9.42445 13.4089 10.0001 13.4089C10.5758 13.4089 11.0425 13.8668 11.0425 14.4317C11.0425 14.9966 10.5758 15.4545 10.0001 15.4545H10.0001Z" fill="white"/>
</svg>
